<svg width="391" height="364" viewBox="0 0 391 364" fill="none" xmlns="http://www.w3.org/2000/svg">
<path d="M677.539 354.865C677.539 514.083 548.468 643.154 389.25 643.154C230.033 643.154 83.2028 522.008 100.962 354.865C119.121 183.959 242.64 81.4408 389.25 66.5771C537.265 51.571 677.539 195.648 677.539 354.865Z" fill="#38B89A"/>
<path d="M691.539 386.865C691.539 531.723 574.108 649.154 429.25 649.154C281.003 649.154 151.128 537.265 166.816 389.613C183.565 231.978 296.43 138.176 431.873 124.445C496.477 117.895 561.156 145.975 610.434 195.691C659.681 245.375 691.539 314.796 691.539 386.865Z" fill="white" fill-opacity="0.02" stroke="#D6FFF5" stroke-width="52"/>
<path d="M752.924 453.481C752.124 612.696 622.407 741.118 463.192 740.319C303.977 739.519 206.323 613.327 186.15 445.551C186.15 278.183 293.748 147.352 452.963 148.152C614.169 158.584 753.723 294.266 752.924 453.481Z" fill="#CAF1E8"/>
</svg>
