<svg width="391" height="364" viewBox="0 0 391 364" fill="none" xmlns="http://www.w3.org/2000/svg">
<path d="M677.539 355.366C677.539 514.583 548.468 643.654 389.25 643.654C230.033 643.654 83.2028 522.508 100.962 355.366C119.121 184.459 242.64 81.941 389.25 67.0772C537.265 52.0711 677.539 196.148 677.539 355.366Z" fill="#38B89A"/>
<path d="M691.539 387.366C691.539 532.223 574.108 649.654 429.25 649.654C281.003 649.654 151.128 537.765 166.816 390.113C183.565 232.478 296.43 138.676 431.873 124.945C496.477 118.395 561.156 146.476 610.434 196.191C659.681 245.875 691.539 315.296 691.539 387.366Z" fill="white" fill-opacity="0.02" stroke="#D6FFF5" stroke-width="52"/>
<path d="M752.924 453.981C752.124 613.197 622.407 741.618 463.192 740.819C303.977 740.019 206.323 613.827 186.15 446.051C186.15 278.683 293.748 147.852 452.963 148.652C614.169 159.084 753.723 294.766 752.924 453.981Z" fill="#F0FFFB"/>
</svg>
