<svg width="16" height="16" viewBox="0 0 16 16" fill="none" xmlns="http://www.w3.org/2000/svg">
<path d="M6.16732 1.49095L6.79417 2.61416C7.35987 3.6278 7.13278 4.95752 6.24181 5.84849C6.24181 5.84849 6.24181 5.84849 6.24181 5.84849C6.24171 5.84859 5.16118 6.92931 7.12054 8.88867C9.07935 10.8475 10.1601 9.76808 10.1607 9.76741C10.1607 9.76738 10.1607 9.7674 10.1608 9.76737C11.0517 8.87643 12.3814 8.64935 13.3951 9.21504L14.5183 9.84189C16.0489 10.6961 16.2296 12.8426 14.8843 14.188C14.0758 14.9964 13.0855 15.6254 11.9907 15.6669C10.1478 15.7368 7.01793 15.2704 3.87838 12.1308C0.738819 8.99128 0.272399 5.86145 0.342265 4.01849C0.383768 2.92371 1.01281 1.93337 1.82122 1.12495C3.1666 -0.220427 5.31311 -0.039664 6.16732 1.49095Z" fill="#38B89A"/>
</svg>
