<svg width="74" height="79" viewBox="0 0 74 79" fill="none" xmlns="http://www.w3.org/2000/svg">
<path d="M11.8926 46.1732V0L36.1023 19.5924L40.9692 15.8486L46.4601 11.7305L56.9427 3.86857C61.8096 2.12147 63.0575 7.23796 61.4352 8.86026L36.1023 27.7039L18.5066 13.6024V46.1732C16.2603 51.1649 11.8926 48.2947 11.8926 46.1732Z" fill="#38B89A"/>
<path d="M61.8096 12.8536L36.1023 33.1948L25.7445 24.3345C20.0041 22.837 20.0041 28.4527 21.0024 29.2014L36.1023 41.5559L55.3204 26.0816V46.1732C57.4418 51.2897 61.8096 48.0451 61.8096 46.1732V12.8536Z" fill="#38B89A"/>
<path d="M1.1777 72.5488V60.4254H3.81021L7.67238 68.1151L11.4826 60.4254H14.1151V72.5488H11.8983V64.1837L8.52102 70.8169H6.77179L3.39455 64.1837V72.5488H1.1777ZM17.4891 76.359L19.4808 71.9773H18.9612L15.6186 63.9585H18.026L20.4333 70.0029L22.9446 63.9585H25.3L19.8445 76.359H17.4891ZM30.9281 72.5488V60.4254H33.5606L37.4228 68.1151L41.233 60.4254H43.8655V72.5488H41.6486V64.1837L38.2714 70.8169H36.5222L33.1449 64.1837V72.5488H30.9281ZM49.387 72.7567C48.3133 72.7567 47.4819 72.4218 46.8931 71.7521C46.3158 71.0825 46.0271 70.1011 46.0271 68.8079V63.9585H48.2267V68.6001C48.2267 69.339 48.3768 69.9048 48.677 70.2973C48.9772 70.6899 49.4505 70.8862 50.0971 70.8862C50.7091 70.8862 51.2113 70.6668 51.6039 70.2281C52.008 69.7893 52.2101 69.1774 52.2101 68.3922V63.9585H54.4269V72.5488H52.4699L52.2967 71.094C52.0311 71.602 51.6443 72.0062 51.1363 72.3064C50.6398 72.6066 50.0567 72.7567 49.387 72.7567ZM57.101 72.5488V65.8117H55.9233V63.9585H57.101V62.954C57.101 61.9149 57.3608 61.1759 57.8803 60.7372C58.4114 60.2984 59.1273 60.079 60.0279 60.079H60.9805V61.9668H60.3743C59.9933 61.9668 59.7219 62.0419 59.5603 62.192C59.3986 62.3421 59.3178 62.5961 59.3178 62.954V63.9585H61.171V65.8117H59.3178V72.5488H57.101ZM66.7542 72.5488C65.8536 72.5488 65.132 72.3295 64.5893 71.8907C64.0467 71.4519 63.7753 70.6726 63.7753 69.5526V65.8117H62.3032V63.9585H63.7753L64.0351 61.6551H65.9922V63.9585H68.3129V65.8117H65.9922V69.5699C65.9922 69.9856 66.0788 70.2742 66.252 70.4359C66.4367 70.586 66.7485 70.661 67.1872 70.661H68.261V72.5488H66.7542ZM71.4113 62.625C71.0072 62.625 70.6724 62.5037 70.4068 62.2613C70.1528 62.0188 70.0258 61.7128 70.0258 61.3433C70.0258 60.9739 70.1528 60.6737 70.4068 60.4427C70.6724 60.2003 71.0072 60.079 71.4113 60.079C71.8154 60.079 72.1445 60.2003 72.3985 60.4427C72.6641 60.6737 72.7969 60.9739 72.7969 61.3433C72.7969 61.7128 72.6641 62.0188 72.3985 62.2613C72.1445 62.5037 71.8154 62.625 71.4113 62.625ZM70.3029 72.5488V63.9585H72.5197V72.5488H70.3029Z" fill="#14201B"/>
</svg>
