<svg width="688" height="486" viewBox="0 0 688 486" fill="none" xmlns="http://www.w3.org/2000/svg">
<g clip-path="url(#clip0_3116_3842)">
<path d="M351.376 484.397C372.069 484.397 388.844 467.622 388.844 446.929C388.844 426.236 372.069 409.461 351.376 409.461C330.683 409.461 313.908 426.236 313.908 446.929C313.908 467.622 330.683 484.397 351.376 484.397Z" fill="#38B89A"/>
<path d="M575.21 482.291C596.171 475.996 618.456 469.432 635.079 454.467C649.934 441.094 659.963 420.673 653.809 400.618C647.667 380.604 629.272 367.258 610.28 360.621C599.508 356.856 588.239 354.768 576.973 353.127C564.727 351.344 552.427 349.882 540.133 348.476C490.351 342.782 440.382 339.304 390.226 338.041C365.478 337.418 340.733 337.433 315.981 337.792C293.876 338.113 270.595 338.105 250.088 328.71C234.141 321.404 219.667 308.112 215.224 290.645C210.095 270.482 219.556 249.949 233.127 235.346C240.281 227.649 248.641 221.17 257.266 215.213C266.623 208.751 276.306 202.746 286.198 197.141C305.682 186.106 326.052 176.715 347.097 169.066C357.478 165.291 368.014 162.034 378.641 159.03C387.615 156.493 396.616 153.952 405.289 150.496C422.054 143.814 438 132.495 442.263 113.939C446.303 96.3526 439.491 77.261 427.549 64.1963C413.733 49.0813 392.9 42.4554 372.928 41.3834C350.505 40.1798 328.6 45.7915 307.525 52.9135C285.047 60.5097 263.053 69.2439 240.101 75.3967C217.34 81.4921 194.138 85.8048 170.708 88.2958C159.237 89.5172 147.42 90.8963 135.882 89.9613C126.212 89.1776 116.591 86.3336 109.464 79.4706C103.353 73.586 99.7127 65.4985 100.964 56.9637C101.192 55.4135 103.546 56.0725 103.32 57.6133C101.797 68.0025 108.859 77.5759 117.562 82.4798C127.619 88.1475 139.858 88.1552 151.056 87.507C175.336 86.0406 199.451 82.5544 223.152 77.0848C246.441 71.7655 268.898 64.1614 291.33 56.0385C312.635 48.3238 334.415 40.7942 357.176 39.1232C376.924 37.6733 397.699 40.5504 414.904 50.8711C430.024 59.9415 441.143 75.068 444.686 92.4261C448.148 109.388 443.353 126.461 430.513 138.297C417.219 150.553 398.991 155.792 382.004 160.618C360.458 166.738 339.374 173.893 318.967 183.182C298.281 192.572 278.442 203.725 259.67 216.519C241.55 228.901 223.668 244.482 217.937 266.572C215.267 276.862 215.76 287.775 220.227 297.495C224.199 306.136 230.74 313.406 238.359 319.013C256.54 332.391 279.454 335.137 301.414 335.411C326.079 335.718 350.745 334.885 375.417 335.29C425.699 336.115 475.878 339.176 525.955 344.472C538.502 345.8 551.034 347.268 563.551 348.876C574.808 350.323 586.104 351.76 597.172 354.329C616.853 358.897 636.004 367.68 648.236 384.367C653.665 391.599 657.028 400.17 657.967 409.165C658.823 418.552 656.525 427.956 652.281 436.306C642.888 454.787 625.294 466.543 606.609 474.266C596.601 478.402 586.22 481.536 575.86 484.648C574.35 485.101 573.705 482.743 575.21 482.291Z" fill="#14201B"/>
<path d="M102.541 76.7323C113.337 76.7323 122.089 67.9802 122.089 57.184C122.089 46.3877 113.337 37.6356 102.541 37.6356C91.7443 37.6356 82.9922 46.3877 82.9922 57.184C82.9922 67.9802 91.7443 76.7323 102.541 76.7323Z" fill="#14201B"/>
<path d="M238.158 113.793C248.954 113.793 257.706 105.041 257.706 94.2445C257.706 83.4483 248.954 74.6962 238.158 74.6962C227.361 74.6962 218.609 83.4483 218.609 94.2445C218.609 105.041 227.361 113.793 238.158 113.793Z" fill="#14201B"/>
<path d="M353.005 39.6722C363.802 39.6722 372.554 30.9201 372.554 20.1239C372.554 9.32765 363.802 0.575562 353.005 0.575562C342.209 0.575562 333.457 9.32765 333.457 20.1239C333.457 30.9201 342.209 39.6722 353.005 39.6722Z" fill="#14201B"/>
<path d="M424.681 122.752C435.477 122.752 444.229 114 444.229 103.204C444.229 92.4077 435.477 83.6556 424.681 83.6556C413.885 83.6556 405.133 92.4077 405.133 103.204C405.133 114 413.885 122.752 424.681 122.752Z" fill="#F2F2F2"/>
<path d="M327.755 218.866C338.552 218.866 347.304 210.114 347.304 199.317C347.304 188.521 338.552 179.769 327.755 179.769C316.959 179.769 308.207 188.521 308.207 199.317C308.207 210.114 316.959 218.866 327.755 218.866Z" fill="#F2F2F2"/>
<path d="M204.763 265.292C215.559 265.292 224.312 256.54 224.312 245.744C224.312 234.948 215.559 226.196 204.763 226.196C193.967 226.196 185.215 234.948 185.215 245.744C185.215 256.54 193.967 265.292 204.763 265.292Z" fill="#14201B"/>
<path d="M335.085 337.784C345.882 337.784 354.634 329.032 354.634 318.236C354.634 307.44 345.882 298.688 335.085 298.688C324.289 298.688 315.537 307.44 315.537 318.236C315.537 329.032 324.289 337.784 335.085 337.784Z" fill="#F2F2F2"/>
<path d="M475.181 378.51C485.977 378.51 494.729 369.758 494.729 358.961C494.729 348.165 485.977 339.413 475.181 339.413C464.385 339.413 455.633 348.165 455.633 358.961C455.633 369.758 464.385 378.51 475.181 378.51Z" fill="#F2F2F2"/>
<path d="M638.9 369.55C649.696 369.55 658.448 360.798 658.448 350.002C658.448 339.205 649.696 330.453 638.9 330.453C628.104 330.453 619.352 339.205 619.352 350.002C619.352 360.798 628.104 369.55 638.9 369.55Z" fill="#14201B"/>
<path d="M347.361 55.9656C288.804 56.3792 240.858 103.965 240.026 162.517C240.019 163.058 240.015 166.859 240.016 171.831C240.016 179.12 242.912 186.111 248.066 191.266C253.22 196.42 260.211 199.316 267.501 199.317C271.114 199.316 274.692 198.604 278.03 197.22C281.368 195.836 284.4 193.807 286.954 191.251C289.508 188.694 291.533 185.66 292.913 182.32C294.294 178.981 295.003 175.402 295 171.789C294.997 168.407 294.995 166.066 294.995 165.922C294.993 156.873 297.347 147.979 301.825 140.116C306.303 132.252 312.751 125.689 320.534 121.074C328.318 116.458 337.169 113.948 346.217 113.79C355.264 113.632 364.197 115.833 372.137 120.175C380.076 124.517 386.749 130.851 391.498 138.554C396.247 146.257 398.909 155.063 399.222 164.107C399.535 173.151 397.489 182.12 393.284 190.133C389.079 198.146 382.861 204.927 375.241 209.808L375.251 209.819C375.251 209.819 336.131 235.004 324.204 269.552L324.215 269.555C322.117 276.632 321.055 283.976 321.059 291.357C321.059 294.392 321.238 320.942 321.583 342.491C321.704 349.926 324.742 357.016 330.044 362.231C335.345 367.445 342.484 370.367 349.92 370.365C353.656 370.365 357.356 369.626 360.806 368.191C364.256 366.755 367.388 364.652 370.022 362.002C372.656 359.352 374.739 356.207 376.153 352.748C377.567 349.289 378.283 345.585 378.26 341.849C378.14 322.114 378.075 299.134 378.075 297.466C378.075 276.252 398.54 255.116 415.351 241.332C434.708 225.46 448.638 203.829 454.233 179.43C455.471 174.406 456.154 169.262 456.269 164.09C456.269 149.824 453.446 135.7 447.963 122.531C442.48 109.361 434.446 97.4072 424.323 87.3567C414.199 77.3062 402.187 69.3583 388.979 63.9707C375.77 58.5832 361.626 55.8625 347.361 55.9656Z" fill="#38B89A"/>
<path d="M687.029 485.424H0.968977C0.712249 485.423 0.466296 485.32 0.285025 485.139C0.103753 484.957 0.00195312 484.71 0.00195312 484.454C0.00195312 484.197 0.103753 483.951 0.285025 483.769C0.466296 483.587 0.712249 483.485 0.968977 483.484H687.029C687.287 483.484 687.533 483.586 687.715 483.768C687.897 483.95 687.999 484.197 687.999 484.454C687.999 484.711 687.897 484.958 687.715 485.14C687.533 485.321 687.287 485.424 687.029 485.424Z" fill="#3F3D56"/>
<path d="M511.881 222.935C525.376 222.935 536.316 211.995 536.316 198.5C536.316 185.004 525.376 174.064 511.881 174.064C498.385 174.064 487.445 185.004 487.445 198.5C487.445 211.995 498.385 222.935 511.881 222.935Z" fill="#2F2E41"/>
<path d="M466.726 474.728H456.741L451.99 436.211H466.729L466.726 474.728Z" fill="#A0616A"/>
<path d="M449.608 471.874H468.866V484H437.482C437.482 482.407 437.796 480.831 438.405 479.359C439.015 477.888 439.908 476.552 441.034 475.426C442.16 474.3 443.497 473.406 444.968 472.797C446.439 472.188 448.016 471.874 449.608 471.874Z" fill="#1C2622"/>
<path d="M544.105 474.728H534.12L529.369 436.211H544.108L544.105 474.728Z" fill="#A0616A"/>
<path d="M526.987 471.874H546.245V484H514.861C514.861 482.407 515.175 480.831 515.784 479.359C516.394 477.888 517.287 476.552 518.413 475.426C519.539 474.3 520.875 473.406 522.347 472.797C523.818 472.188 525.395 471.874 526.987 471.874Z" fill="#1C2622"/>
<path d="M508.167 223.077C519.216 223.077 528.173 214.121 528.173 203.072C528.173 192.023 519.216 183.067 508.167 183.067C497.119 183.067 488.162 192.023 488.162 203.072C488.162 214.121 497.119 223.077 508.167 223.077Z" fill="#A0616A"/>
<path d="M520.089 287.615L529.041 267.049C531.215 262.224 531.838 256.843 530.824 251.65C529.81 246.456 527.209 241.705 523.38 238.052C522.594 237.274 521.758 236.548 520.879 235.877C516.462 232.422 511.019 230.539 505.412 230.526C501.641 230.54 497.919 231.368 494.497 232.953C494.204 233.083 493.919 233.222 493.626 233.36C493.064 233.629 492.51 233.922 491.972 234.224C488.466 236.237 485.481 239.046 483.26 242.425C481.039 245.804 479.643 249.657 479.184 253.674L475.234 286.776C474.24 289.374 438.793 383.206 451.19 454.843C451.322 455.608 451.695 456.311 452.254 456.849C452.814 457.386 453.531 457.731 454.301 457.832L466.869 459.543C467.787 459.668 468.718 459.441 469.475 458.908C470.232 458.374 470.759 457.574 470.95 456.668L492.037 356.148C492.169 355.524 492.506 354.961 492.995 354.551C493.483 354.14 494.095 353.906 494.733 353.884C495.371 353.862 495.998 354.055 496.513 354.432C497.028 354.808 497.403 355.347 497.576 355.961L527.371 461.669C527.583 462.437 528.042 463.114 528.676 463.596C529.31 464.079 530.085 464.34 530.882 464.34C531.119 464.339 531.356 464.317 531.59 464.275L546.944 461.318C547.836 461.152 548.634 460.657 549.181 459.933C549.728 459.208 549.985 458.305 549.901 457.401C547.644 432.24 535.655 306.21 520.089 287.615Z" fill="#38B89A"/>
<path d="M430.42 219.72C430.282 220.909 430.405 222.114 430.783 223.251C431.16 224.387 431.782 225.427 432.605 226.297C433.427 227.167 434.431 227.846 435.544 228.286C436.658 228.727 437.854 228.917 439.05 228.845L450.232 255.718L458.691 243.179L446.775 219.583C446.521 217.583 445.541 215.746 444.023 214.419C442.505 213.093 440.553 212.37 438.537 212.387C436.521 212.404 434.581 213.16 433.085 214.511C431.589 215.863 430.641 217.716 430.42 219.72Z" fill="#A0616A"/>
<path d="M507.058 314.673C508.247 314.531 509.39 314.13 510.408 313.499C511.425 312.867 512.291 312.02 512.945 311.017C513.6 310.014 514.026 308.88 514.195 307.695C514.364 306.509 514.27 305.301 513.922 304.156L537.449 287.019L523.285 281.715L503.114 298.801C501.228 299.514 499.67 300.895 498.734 302.68C497.798 304.466 497.55 306.533 498.036 308.489C498.522 310.446 499.709 312.156 501.372 313.296C503.035 314.435 505.058 314.926 507.058 314.673Z" fill="#A0616A"/>
<path d="M468.705 273.634C467.803 273.633 466.903 273.544 466.018 273.369C463.878 272.961 461.871 272.034 460.174 270.668C458.477 269.302 457.142 267.54 456.287 265.536L440.62 246.433C440.289 246.029 440.048 245.559 439.913 245.055C439.778 244.55 439.753 244.023 439.839 243.507C439.924 242.992 440.119 242.501 440.41 242.067C440.701 241.633 441.081 241.267 441.525 240.992L452.671 234.092C453.083 233.838 453.541 233.667 454.019 233.59C454.497 233.513 454.985 233.531 455.456 233.644C455.926 233.757 456.37 233.962 456.761 234.247C457.152 234.533 457.483 234.892 457.734 235.306L468.776 253.498L489.922 237.87C491.605 236.987 493.55 236.739 495.402 237.172C497.253 237.605 498.886 238.69 500.004 240.227C501.122 241.765 501.649 243.654 501.489 245.548C501.329 247.442 500.493 249.216 499.134 250.545L478.028 269.797C475.548 272.256 472.197 273.635 468.705 273.634Z" fill="#1C2622"/>
<path d="M525.843 302.364C525.814 302.364 525.785 302.364 525.756 302.363C525.242 302.351 524.737 302.23 524.272 302.01C523.808 301.79 523.395 301.474 523.06 301.084L513.15 289.524C512.813 289.13 512.562 288.669 512.416 288.171C512.27 287.674 512.231 287.151 512.302 286.637C512.373 286.124 512.552 285.631 512.827 285.191C513.103 284.752 513.468 284.376 513.9 284.088L532.456 271.718L515.645 251.508C514.667 249.878 514.309 247.95 514.635 246.077C514.961 244.204 515.95 242.511 517.421 241.307C518.892 240.103 520.747 239.469 522.648 239.52C524.548 239.571 526.367 240.304 527.771 241.585L548.202 261.551C549.81 263.02 551.038 264.857 551.779 266.905C552.521 268.953 552.755 271.15 552.46 273.308C552.166 275.466 551.352 277.52 550.089 279.294C548.826 281.068 547.151 282.51 545.208 283.494L528.51 301.213C528.167 301.576 527.754 301.866 527.295 302.064C526.836 302.262 526.342 302.364 525.843 302.364Z" fill="#1C2622"/>
<path d="M503.08 259.765C502.921 259.765 502.762 259.755 502.604 259.735C501.914 259.651 501.263 259.371 500.727 258.928C500.191 258.485 499.794 257.898 499.582 257.236L492.135 234.405C491.949 233.828 491.978 233.203 492.216 232.645C492.455 232.087 492.887 231.635 493.434 231.372L493.675 231.257C493.894 231.153 494.111 231.05 494.333 230.952C497.805 229.341 501.585 228.501 505.413 228.489C510.382 228.498 515.24 229.958 519.391 232.689C519.947 233.06 520.336 233.634 520.474 234.288C520.611 234.942 520.486 235.624 520.125 236.187L506.156 258.072C505.829 258.591 505.375 259.019 504.837 259.315C504.298 259.612 503.694 259.766 503.08 259.765Z" fill="#E6E6E6"/>
<path d="M531.144 187.59C535.56 187.59 539.14 184.01 539.14 179.594C539.14 175.178 535.56 171.599 531.144 171.599C526.728 171.599 523.148 175.178 523.148 179.594C523.148 184.01 526.728 187.59 531.144 187.59Z" fill="#2F2E41"/>
<path d="M503.736 170.805C498.119 170.805 492.733 173.036 488.761 177.008C484.79 180.979 482.559 186.366 482.559 191.982V200.942H493.578L498.849 191.983L500.43 200.942H533.873L524.913 191.982C524.913 186.366 522.682 180.979 518.711 177.008C514.739 173.036 509.353 170.805 503.736 170.805Z" fill="#2F2E41"/>
<path d="M535.256 174.117C536.14 171.352 537.971 168.988 540.426 167.439C542.881 165.89 545.804 165.257 548.68 165.65C553.775 166.502 557.804 170.598 560.205 175.172C562.605 179.747 563.714 184.867 565.327 189.775C566.941 194.683 569.23 199.617 573.304 202.794C577.378 205.971 583.63 206.833 587.631 203.565C587.174 206.971 585.658 210.147 583.296 212.644C580.935 215.14 577.849 216.832 574.474 217.479C571.099 218.125 567.606 217.695 564.489 216.247C561.372 214.8 558.789 212.41 557.105 209.414C554.994 205.658 554.449 201.255 553.823 196.992C553.197 192.728 552.383 188.317 549.863 184.822C547.342 181.328 542.624 179.045 538.619 180.637L535.256 174.117Z" fill="#2F2E41"/>
<path d="M275.263 186.316C267.974 186.315 260.983 183.419 255.829 178.264C250.674 173.11 247.778 166.119 247.778 158.829C247.778 153.858 247.781 150.057 247.789 149.516C248.02 132.487 252.309 115.759 260.299 100.72C247.172 118.69 239.954 140.296 239.644 162.548C239.636 163.089 239.632 166.89 239.633 171.862C239.633 179.151 242.529 186.142 247.683 191.297C252.838 196.451 259.828 199.347 267.118 199.348C273.108 199.346 278.933 197.389 283.709 193.774C288.486 190.158 291.951 185.083 293.58 179.319C288.547 183.832 282.023 186.324 275.263 186.316Z" fill="#1C2622"/>
<path d="M349.225 113.881C357.652 114.284 365.856 116.725 373.131 120.997C380.407 125.268 386.537 131.241 390.996 138.404C395.454 145.566 398.108 153.704 398.729 162.117C399.35 170.531 397.919 178.97 394.56 186.709C399.419 181.003 402.99 174.317 405.03 167.106C407.07 159.895 407.531 152.328 406.382 144.923C405.233 137.517 402.5 130.446 398.371 124.193C394.241 117.939 388.812 112.649 382.453 108.684C376.094 104.718 368.954 102.171 361.521 101.215C354.088 100.259 346.536 100.917 339.381 103.144C332.225 105.371 325.634 109.115 320.056 114.121C314.479 119.126 310.046 125.275 307.061 132.149C312.221 126.079 318.706 121.275 326.017 118.107C333.327 114.94 341.267 113.494 349.225 113.881Z" fill="#1C2622"/>
<path d="M357.681 357.363C350.245 357.365 343.106 354.443 337.805 349.228C332.504 344.014 329.465 336.924 329.344 329.489C329 307.94 328.821 281.39 328.821 278.355C328.816 270.974 329.879 263.63 331.976 256.552L331.966 256.55C333.204 252.998 334.7 249.54 336.441 246.205C331.097 253.327 326.843 261.206 323.821 269.582L323.831 269.585C321.734 276.662 320.671 284.006 320.676 291.388C320.676 294.422 320.854 320.972 321.199 342.521C321.32 349.956 324.359 357.046 329.66 362.261C334.961 367.475 342.1 370.397 349.536 370.395C355.667 370.394 361.633 368.405 366.538 364.727C371.444 361.048 375.024 355.879 376.742 349.993C371.532 354.744 364.732 357.373 357.681 357.363Z" fill="#1C2622"/>
<path d="M103.069 475.1L113.054 475.099L117.805 436.582L103.066 436.583L103.069 475.1Z" fill="#FFB8B8"/>
<path d="M132.312 484.37L100.929 484.372L100.928 472.246L120.186 472.245C123.402 472.245 126.487 473.523 128.761 475.796C131.035 478.07 132.312 481.154 132.312 484.37Z" fill="#2F2E41"/>
<path d="M67.231 475.1L77.2161 475.099L81.9671 436.582L67.2285 436.583L67.231 475.1Z" fill="#FFB8B8"/>
<path d="M96.4746 484.371L65.0908 484.372L65.0903 472.246L84.3485 472.246C87.5644 472.245 90.6486 473.523 92.9227 475.797C95.1968 478.071 96.4745 481.155 96.4746 484.371Z" fill="#2F2E41"/>
<path d="M75.9583 463.254L66.2044 462.741C65.7015 462.714 65.2088 462.588 64.7549 462.37C64.301 462.152 63.8949 461.846 63.5601 461.469C63.2254 461.093 62.9687 460.654 62.8048 460.178C62.6409 459.701 62.5732 459.197 62.6055 458.695L74.2634 329.622L127.949 344.109L133.121 342.698L116.946 456.962C116.809 457.821 116.382 458.608 115.736 459.192C115.091 459.776 114.265 460.123 113.397 460.175L102.882 460.664C102.356 460.694 101.83 460.613 101.337 460.429C100.844 460.244 100.394 459.96 100.017 459.593C99.6393 459.225 99.342 458.784 99.1438 458.296C98.9456 457.808 98.8508 457.285 98.8653 456.758L100.77 388.179C100.779 387.862 100.669 387.553 100.462 387.313C100.254 387.073 99.9641 386.92 99.649 386.883C99.3339 386.846 99.0164 386.929 98.7592 387.114C98.5019 387.3 98.3235 387.575 98.2591 387.886L79.8862 460.225C79.7127 461.083 79.247 461.855 78.5684 462.408C77.8897 462.961 77.0402 463.262 76.1645 463.259C76.0962 463.259 76.0274 463.258 75.9583 463.254Z" fill="#38B89A"/>
<path d="M104.863 224.012C115.911 224.012 124.868 215.056 124.868 204.007C124.868 192.959 115.911 184.002 104.863 184.002C93.8141 184.002 84.8574 192.959 84.8574 204.007C84.8574 215.056 93.8141 224.012 104.863 224.012Z" fill="#FFB8B8"/>
<path d="M71.5546 262.782L73.7542 310.242L74.5494 327.508C74.5811 328.26 74.8363 328.985 75.2824 329.591C75.7285 330.197 76.3451 330.656 77.0535 330.909L128.642 349.597C129.058 349.752 129.5 349.829 129.944 349.825C130.453 349.828 130.956 349.728 131.425 349.531C131.893 349.335 132.318 349.046 132.672 348.682C133.027 348.318 133.304 347.886 133.488 347.413C133.672 346.939 133.759 346.433 133.743 345.925L131.628 260.591C131.489 253.59 128.912 246.856 124.341 241.552C119.77 236.247 113.491 232.703 106.587 231.532C106.088 231.455 105.58 231.379 105.073 231.312C100.792 230.78 96.4462 231.193 92.342 232.522C88.2379 233.85 84.4747 236.062 81.3173 239.002C78.0478 242.009 75.4788 245.697 73.7918 249.806C72.1049 253.916 71.3411 258.345 71.5546 262.782Z" fill="#CCCCCC"/>
<path d="M153.285 340.126C152.065 339.748 150.95 339.089 150.03 338.203C149.109 337.317 148.409 336.228 147.984 335.023C147.559 333.819 147.422 332.531 147.583 331.264C147.744 329.996 148.199 328.784 148.912 327.724L131.418 304.462L146.514 303.527L160.813 325.761C162.343 326.945 163.409 328.629 163.821 330.52C164.234 332.41 163.968 334.385 163.07 336.099C162.172 337.813 160.699 339.156 158.91 339.892C157.121 340.629 155.129 340.712 153.285 340.126Z" fill="#FFB8B8"/>
<path d="M140.986 323.514C140.522 323.326 140.101 323.048 139.745 322.696C139.39 322.344 139.108 321.925 138.916 321.463L112.56 258.669C112.043 257.439 111.773 256.12 111.766 254.786C111.759 253.452 112.015 252.13 112.519 250.895C113.023 249.661 113.765 248.537 114.704 247.589C115.643 246.642 116.759 245.888 117.988 245.372C119.218 244.856 120.538 244.587 121.872 244.581C123.205 244.575 124.527 244.832 125.762 245.337C126.996 245.842 128.119 246.586 129.066 247.525C130.013 248.464 130.766 249.581 131.281 250.811L157.637 313.606C158.027 314.537 158.031 315.585 157.649 316.519C157.267 317.453 156.531 318.198 155.6 318.59L143.9 323.5C143.439 323.695 142.944 323.797 142.444 323.799C141.944 323.802 141.448 323.705 140.986 323.514Z" fill="#14201B"/>
<path d="M98.4298 321.3L123.744 272.829C124.232 271.897 125.07 271.196 126.074 270.881C127.078 270.566 128.166 270.662 129.1 271.148L165.844 290.338C166.776 290.826 167.476 291.664 167.791 292.668C168.106 293.672 168.01 294.76 167.524 295.694L142.21 344.164C141.722 345.096 140.884 345.797 139.88 346.112C138.876 346.427 137.788 346.331 136.854 345.845L100.111 326.655C99.1783 326.167 98.4779 325.329 98.1628 324.325C97.8477 323.321 97.9437 322.233 98.4298 321.3Z" fill="#1C2622"/>
<path d="M115.408 299.155C114.958 297.959 114.234 296.885 113.296 296.019C112.357 295.153 111.228 294.518 110.001 294.165C108.773 293.812 107.479 293.751 106.224 293.986C104.968 294.222 103.785 294.748 102.769 295.522L78.5139 279.432L78.4727 294.557L101.512 307.518C102.784 308.976 104.528 309.94 106.44 310.24C108.351 310.541 110.307 310.159 111.965 309.161C113.623 308.163 114.876 306.614 115.506 304.784C116.135 302.954 116.101 300.962 115.408 299.155Z" fill="#FFB8B8"/>
<path d="M84.7411 302.556L64.9185 286.854C62.774 286.134 60.8364 284.904 59.2718 283.27C57.7072 281.637 56.5625 279.648 55.9358 277.474C55.3092 275.301 55.2193 273.007 55.674 270.792C56.1286 268.576 57.1142 266.503 58.5462 264.752L76.5446 241.164C77.7953 239.636 79.5544 238.608 81.5001 238.27C83.4458 237.932 85.4483 238.305 87.1415 239.322C88.8347 240.338 90.1055 241.93 90.7216 243.807C91.3377 245.683 91.2579 247.718 90.4969 249.541L76.2561 272.836L97.1842 282.762C97.6709 282.993 98.103 283.324 98.4521 283.735C98.8011 284.145 99.0592 284.624 99.2092 285.142C99.3591 285.659 99.3977 286.202 99.3221 286.736C99.2466 287.269 99.0587 287.78 98.771 288.235L90.3231 301.605C90.0375 302.056 89.6603 302.442 89.216 302.739C88.7717 303.035 88.2701 303.234 87.7437 303.324C87.7228 303.328 87.7018 303.331 87.6808 303.334C87.1636 303.413 86.6359 303.384 86.1302 303.25C85.6246 303.116 85.1518 302.88 84.7411 302.556Z" fill="#14201B"/>
<path d="M89.7456 217.403C89.6597 217.152 89.6325 216.884 89.666 216.621C89.6995 216.358 89.7927 216.106 89.9387 215.884C90.0846 215.663 90.2794 215.477 90.508 215.343C90.7366 215.208 90.993 215.127 91.2576 215.107C91.7994 215.136 92.3297 215.275 92.8163 215.515C93.3029 215.755 93.7359 216.092 94.0889 216.504C94.8129 217.338 95.6558 218.062 96.5904 218.652C97.5582 219.139 98.8707 219.07 99.4224 218.14C99.9405 217.267 99.5855 216.097 99.2718 215.083C98.4738 212.502 98.0272 209.825 97.9443 207.125C97.8539 204.111 98.2791 200.965 99.9477 198.615C102.101 195.581 105.952 194.429 109.596 194.513C113.24 194.596 116.825 195.721 120.435 196.432C121.681 196.678 123.146 196.803 123.979 195.837C124.865 194.81 124.54 193.148 124.163 191.762C123.185 188.164 122.147 184.444 119.874 181.538C117.417 178.518 113.907 176.542 110.051 176.007C106.349 175.548 102.591 175.975 99.0854 177.252C93.3747 179.052 88.3497 182.552 84.6825 187.286C80.9021 192.319 79.2685 198.645 80.139 204.879C80.9895 210.309 83.8669 215.215 88.1912 218.608L89.7456 217.403Z" fill="#2F2E41"/>
<path d="M343.12 475.258C337.798 472.94 333.087 469.416 329.359 464.966C325.632 460.515 322.99 455.259 321.641 449.612C320.293 443.966 320.276 438.083 321.59 432.428C322.905 426.774 325.516 421.502 329.216 417.029C324.926 420.162 321.35 424.172 318.727 428.793C316.104 433.413 314.494 438.538 314.004 443.829C313.513 449.119 314.154 454.453 315.882 459.477C317.611 464.501 320.388 469.1 324.03 472.968C327.672 476.837 332.094 479.886 337.005 481.915C341.915 483.943 347.201 484.904 352.512 484.734C357.822 484.563 363.035 483.265 367.805 480.926C372.576 478.587 376.794 475.259 380.18 471.165C374.898 475.025 368.698 477.434 362.196 478.152C355.694 478.87 349.117 477.873 343.12 475.258Z" fill="#1C2622"/>
</g>
<defs>
<clipPath id="clip0_3116_3842">
<rect width="688" height="484.849" fill="white" transform="translate(0 0.575562)"/>
</clipPath>
</defs>
</svg>
