<svg width="36" height="36" viewBox="0 0 36 36" fill="none" xmlns="http://www.w3.org/2000/svg">
<path fill-rule="evenodd" clip-rule="evenodd" d="M35.269 18.6994C35.269 17.4487 35.1567 16.2461 34.9483 15.0916H18.3359V21.9145H27.8287C27.4198 24.1193 26.1771 25.9874 24.309 27.2381V31.6638H30.0095C33.3448 28.5931 35.269 24.0712 35.269 18.6994Z" fill="#A6A6A6" fill-opacity="0.88"/>
<path fill-rule="evenodd" clip-rule="evenodd" d="M18.3387 35.9375C23.1011 35.9375 27.0938 34.3581 30.0122 31.6642L24.3117 27.2385C22.7323 28.2968 20.7119 28.9222 18.3387 28.9222C13.7446 28.9222 9.8561 25.8194 8.46907 21.6503H2.57617V26.2203C5.47852 31.9849 11.4436 35.9375 18.3387 35.9375Z" fill="#A6A6A6" fill-opacity="0.88"/>
<path fill-rule="evenodd" clip-rule="evenodd" d="M8.46822 21.6489C8.11545 20.5906 7.91501 19.4601 7.91501 18.2976C7.91501 17.135 8.11545 16.0045 8.46822 14.9462V10.3762H2.57532C1.38071 12.7574 0.699219 15.4513 0.699219 18.2976C0.699219 21.1438 1.38071 23.8377 2.57532 26.2189L8.46822 21.6489Z" fill="#A6A6A6" fill-opacity="0.88"/>
<path fill-rule="evenodd" clip-rule="evenodd" d="M18.3387 7.67673C20.9283 7.67673 23.2534 8.56667 25.0814 10.3145L30.1405 5.25543C27.0858 2.4092 23.0931 0.661377 18.3387 0.661377C11.4436 0.661377 5.47852 4.61403 2.57617 10.3786L8.46907 14.9486C9.8561 10.7795 13.7446 7.67673 18.3387 7.67673Z" fill="#A6A6A6" fill-opacity="0.88"/>
</svg>
