<svg width="16" height="17" viewBox="0 0 16 17" fill="none" xmlns="http://www.w3.org/2000/svg">
<path fill-rule="evenodd" clip-rule="evenodd" d="M15.68 9.02992C15.68 8.46265 15.6291 7.91719 15.5346 7.39355H8V10.4881H12.3055C12.12 11.4881 11.5564 12.3354 10.7091 12.9027V14.9099H13.2946C14.8073 13.5172 15.68 11.4663 15.68 9.02992Z" fill="#DADADA"/>
<path fill-rule="evenodd" clip-rule="evenodd" d="M8.00067 16.8482C10.1607 16.8482 11.9716 16.1318 13.2952 14.91L10.7098 12.9027C9.9934 13.3827 9.07703 13.6664 8.00067 13.6664C5.91703 13.6664 4.15339 12.2591 3.5243 10.3682H0.851562V12.4409C2.16793 15.0554 4.87339 16.8482 8.00067 16.8482Z" fill="#DADADA"/>
<path fill-rule="evenodd" clip-rule="evenodd" d="M3.52364 10.3676C3.36364 9.88762 3.27273 9.37489 3.27273 8.84762C3.27273 8.32034 3.36364 7.80762 3.52364 7.32761V5.25488H0.850911C0.309092 6.33489 0 7.55671 0 8.84762C0 10.1385 0.309092 11.3604 0.850911 12.4404L3.52364 10.3676Z" fill="#DADADA"/>
<path fill-rule="evenodd" clip-rule="evenodd" d="M8.00067 4.03046C9.17522 4.03046 10.2298 4.4341 11.0589 5.22682L13.3534 2.93227C11.9679 1.64136 10.157 0.848633 8.00067 0.848633C4.87339 0.848633 2.16793 2.64136 0.851562 5.25592L3.5243 7.32865C4.15339 5.43773 5.91703 4.03046 8.00067 4.03046Z" fill="#DADADA"/>
</svg>
