<svg width="18" height="18" viewBox="0 0 18 18" fill="none" xmlns="http://www.w3.org/2000/svg">
<path d="M8.97969 2.04883C11.1797 2.04883 11.4797 2.04883 12.3797 2.04883C13.1797 2.04883 13.5797 2.24883 13.8797 2.34883C14.2797 2.54883 14.5797 2.64883 14.8797 2.94883C15.1797 3.24883 15.3797 3.54883 15.4797 3.94883C15.5797 4.24883 15.6797 4.64883 15.7797 5.44883C15.7797 6.34883 15.7797 6.54883 15.7797 8.84883C15.7797 11.1488 15.7797 11.3488 15.7797 12.2488C15.7797 13.0488 15.5797 13.4488 15.4797 13.7488C15.2797 14.1488 15.1797 14.4488 14.8797 14.7488C14.5797 15.0488 14.2797 15.2488 13.8797 15.3488C13.5797 15.4488 13.1797 15.5488 12.3797 15.6488C11.4797 15.6488 11.2797 15.6488 8.97969 15.6488C6.67969 15.6488 6.47969 15.6488 5.57969 15.6488C4.77969 15.6488 4.37969 15.4488 4.07969 15.3488C3.67969 15.1488 3.37969 15.0488 3.07969 14.7488C2.77969 14.4488 2.57969 14.1488 2.47969 13.7488C2.37969 13.4488 2.27969 13.0488 2.17969 12.2488C2.17969 11.3488 2.17969 11.1488 2.17969 8.84883C2.17969 6.54883 2.17969 6.34883 2.17969 5.44883C2.17969 4.64883 2.37969 4.24883 2.47969 3.94883C2.67969 3.54883 2.77969 3.24883 3.07969 2.94883C3.37969 2.64883 3.67969 2.44883 4.07969 2.34883C4.37969 2.24883 4.77969 2.14883 5.57969 2.04883C6.47969 2.04883 6.77969 2.04883 8.97969 2.04883ZM8.97969 0.548828C6.67969 0.548828 6.47969 0.548828 5.57969 0.548828C4.67969 0.548828 4.07969 0.748829 3.57969 0.948829C3.07969 1.14883 2.57969 1.44883 2.07969 1.94883C1.57969 2.44883 1.37969 2.84883 1.07969 3.44883C0.879688 3.94883 0.779688 4.54883 0.679688 5.44883C0.679688 6.34883 0.679688 6.64883 0.679688 8.84883C0.679688 11.1488 0.679688 11.3488 0.679688 12.2488C0.679688 13.1488 0.879688 13.7488 1.07969 14.2488C1.27969 14.7488 1.57969 15.2488 2.07969 15.7488C2.57969 16.2488 2.97969 16.4488 3.57969 16.7488C4.07969 16.9488 4.67969 17.0488 5.57969 17.1488C6.47969 17.1488 6.77969 17.1488 8.97969 17.1488C11.1797 17.1488 11.4797 17.1488 12.3797 17.1488C13.2797 17.1488 13.8797 16.9488 14.3797 16.7488C14.8797 16.5488 15.3797 16.2488 15.8797 15.7488C16.3797 15.2488 16.5797 14.8488 16.8797 14.2488C17.0797 13.7488 17.1797 13.1488 17.2797 12.2488C17.2797 11.3488 17.2797 11.0488 17.2797 8.84883C17.2797 6.64883 17.2797 6.34883 17.2797 5.44883C17.2797 4.54883 17.0797 3.94883 16.8797 3.44883C16.6797 2.94883 16.3797 2.44883 15.8797 1.94883C15.3797 1.44883 14.9797 1.24883 14.3797 0.948829C13.8797 0.748829 13.2797 0.648828 12.3797 0.548828C11.4797 0.548828 11.2797 0.548828 8.97969 0.548828Z" fill="#DADADA"/>
<path d="M8.97969 4.54883C6.57969 4.54883 4.67969 6.44883 4.67969 8.84883C4.67969 11.2488 6.57969 13.1488 8.97969 13.1488C11.3797 13.1488 13.2797 11.2488 13.2797 8.84883C13.2797 6.44883 11.3797 4.54883 8.97969 4.54883ZM8.97969 11.6488C7.47969 11.6488 6.17969 10.4488 6.17969 8.84883C6.17969 7.34883 7.37969 6.04883 8.97969 6.04883C10.4797 6.04883 11.7797 7.24883 11.7797 8.84883C11.7797 10.3488 10.4797 11.6488 8.97969 11.6488Z" fill="#DADADA"/>
<path d="M13.3797 5.44883C13.932 5.44883 14.3797 5.00111 14.3797 4.44883C14.3797 3.89654 13.932 3.44883 13.3797 3.44883C12.8274 3.44883 12.3797 3.89654 12.3797 4.44883C12.3797 5.00111 12.8274 5.44883 13.3797 5.44883Z" fill="#DADADA"/>
</svg>
