<svg width="38" height="37" viewBox="0 0 38 37" fill="none" xmlns="http://www.w3.org/2000/svg">
<path d="M19.1438 3.30723C23.9944 3.30723 24.6558 3.30723 26.6401 3.30723C28.404 3.30723 29.2859 3.74819 29.9474 3.96868C30.8293 4.40964 31.4907 4.63012 32.1522 5.29157C32.8136 5.95301 33.2546 6.61446 33.4751 7.49639C33.6956 8.15783 33.916 9.03976 34.1365 10.8036C34.1365 12.788 34.1365 13.2289 34.1365 18.3C34.1365 23.3711 34.1365 23.812 34.1365 25.7964C34.1365 27.5602 33.6956 28.4422 33.4751 29.1036C33.0341 29.9855 32.8136 30.647 32.1522 31.3084C31.4907 31.9699 30.8293 32.4108 29.9474 32.6313C29.2859 32.8518 28.404 33.0723 26.6401 33.2928C24.6558 33.2928 24.2148 33.2928 19.1438 33.2928C14.0727 33.2928 13.6317 33.2928 11.6474 33.2928C9.88351 33.2928 9.00158 32.8518 8.34014 32.6313C7.45821 32.1904 6.79676 31.9699 6.13532 31.3084C5.47387 30.647 5.03291 29.9855 4.81243 29.1036C4.59194 28.4422 4.37146 27.5602 4.15098 25.7964C4.15098 23.812 4.15098 23.3711 4.15098 18.3C4.15098 13.2289 4.15098 12.788 4.15098 10.8036C4.15098 9.03976 4.59194 8.15783 4.81243 7.49639C5.25339 6.61446 5.47387 5.95301 6.13532 5.29157C6.79676 4.63012 7.45821 4.18916 8.34014 3.96868C9.00158 3.74819 9.88351 3.52771 11.6474 3.30723C13.6317 3.30723 14.2931 3.30723 19.1438 3.30723ZM19.1438 0C14.0727 0 13.6317 0 11.6474 0C9.66303 0 8.34014 0.440965 7.23773 0.881929C6.13532 1.32289 5.03291 1.98434 3.9305 3.08675C2.82809 4.18916 2.38712 5.07109 1.72568 6.39398C1.28472 7.49639 1.06423 8.81928 0.84375 10.8036C0.84375 12.788 0.84375 13.4494 0.84375 18.3C0.84375 23.3711 0.84375 23.812 0.84375 25.7964C0.84375 27.7807 1.28472 29.1036 1.72568 30.206C2.16664 31.3084 2.82809 32.4108 3.9305 33.5133C5.03291 34.6157 5.91484 35.0566 7.23773 35.7181C8.34014 36.159 9.66303 36.3795 11.6474 36.6C13.6317 36.6 14.2931 36.6 19.1438 36.6C23.9944 36.6 24.6558 36.6 26.6401 36.6C28.6245 36.6 29.9474 36.159 31.0498 35.7181C32.1522 35.2771 33.2546 34.6157 34.357 33.5133C35.4594 32.4108 35.9004 31.5289 36.5618 30.206C37.0028 29.1036 37.2233 27.7807 37.4437 25.7964C37.4437 23.812 37.4437 23.1506 37.4437 18.3C37.4437 13.4494 37.4437 12.788 37.4437 10.8036C37.4437 8.81928 37.0028 7.49639 36.5618 6.39398C36.1209 5.29157 35.4594 4.18916 34.357 3.08675C33.2546 1.98434 32.3727 1.54337 31.0498 0.881929C29.9474 0.440965 28.6245 0.220482 26.6401 0C24.6558 0 24.2148 0 19.1438 0Z" fill="#A6A6A6" fill-opacity="0.88"/>
<path d="M19.1438 8.81928C13.8522 8.81928 9.66303 13.0084 9.66303 18.3C9.66303 23.5916 13.8522 27.7807 19.1438 27.7807C24.4353 27.7807 28.6245 23.5916 28.6245 18.3C28.6245 13.0084 24.4353 8.81928 19.1438 8.81928ZM19.1438 24.4735C15.8365 24.4735 12.9703 21.8277 12.9703 18.3C12.9703 14.9928 15.616 12.1265 19.1438 12.1265C22.451 12.1265 25.3172 14.7723 25.3172 18.3C25.3172 21.6072 22.451 24.4735 19.1438 24.4735Z" fill="#A6A6A6" fill-opacity="0.88"/>
<path d="M28.845 10.8036C30.0626 10.8036 31.0498 9.81649 31.0498 8.5988C31.0498 7.38111 30.0626 6.39398 28.845 6.39398C27.6273 6.39398 26.6401 7.38111 26.6401 8.5988C26.6401 9.81649 27.6273 10.8036 28.845 10.8036Z" fill="#A6A6A6" fill-opacity="0.88"/>
</svg>
