<svg width="16" height="20" viewBox="0 0 16 20" fill="none" xmlns="http://www.w3.org/2000/svg">
<path fill-rule="evenodd" clip-rule="evenodd" d="M7.64859 0.387695C3.50313 0.387695 0.142578 4.14312 0.142578 8.36283C0.142578 12.5495 2.53824 17.1002 6.27599 18.8473C7.14732 19.2545 8.14986 19.2545 9.02119 18.8473C12.7589 17.1002 15.1546 12.5495 15.1546 8.36283C15.1546 4.14312 11.794 0.387695 7.64859 0.387695ZM7.64859 9.77021C8.68495 9.77021 9.52509 8.93007 9.52509 7.89371C9.52509 6.85734 8.68495 6.0172 7.64859 6.0172C6.61223 6.0172 5.77209 6.85734 5.77209 7.89371C5.77209 8.93007 6.61223 9.77021 7.64859 9.77021Z" fill="#38B89A"/>
</svg>
