<svg width="20" height="16" viewBox="0 0 20 16" fill="none" xmlns="http://www.w3.org/2000/svg">
<path fill-rule="evenodd" clip-rule="evenodd" d="M1.36485 1.65904C0.265625 2.75827 0.265625 4.52746 0.265625 8.06583C0.265625 11.6042 0.265625 13.3734 1.36485 14.4726C2.46408 15.5718 4.23327 15.5718 7.77164 15.5718H11.5246C15.063 15.5718 16.8322 15.5718 17.9314 14.4726C19.0307 13.3734 19.0307 11.6042 19.0307 8.06583C19.0307 4.52746 19.0307 2.75827 17.9314 1.65904C16.8322 0.559814 15.063 0.559814 11.5246 0.559814H7.77164C4.23327 0.559814 2.46408 0.559814 1.36485 1.65904ZM15.8182 3.86233C16.067 4.16089 16.0267 4.60461 15.7281 4.85341L13.6673 6.57078C12.8357 7.26383 12.1616 7.82556 11.5667 8.20818C10.947 8.60675 10.3435 8.85853 9.64814 8.85853C8.95282 8.85853 8.34929 8.60675 7.72958 8.20818C7.13467 7.82556 6.46063 7.26384 5.629 6.5708L3.56814 4.85341C3.26958 4.60461 3.22924 4.16089 3.47804 3.86233C3.72684 3.56377 4.17056 3.52343 4.46912 3.77223L6.49471 5.46022C7.37006 6.18968 7.9778 6.69449 8.49088 7.02449C8.98756 7.34393 9.32437 7.45115 9.64814 7.45115C9.9719 7.45115 10.3087 7.34393 10.8054 7.02449C11.3185 6.69449 11.9262 6.18968 12.8016 5.46022L14.8272 3.77223C15.1257 3.52343 15.5694 3.56377 15.8182 3.86233Z" fill="#38B89A"/>
</svg>
