<svg width="360" height="330" viewBox="0 0 360 330" fill="none" xmlns="http://www.w3.org/2000/svg">
<path d="M364.676 237.191C374.154 258.257 376.484 281.844 371.311 304.357C366.138 326.871 353.746 347.075 336.023 361.891C318.3 376.706 296.219 385.321 273.145 386.422C250.072 387.522 227.271 381.048 208.219 367.986C189.167 354.924 174.908 335.991 167.616 314.072C160.323 292.153 160.398 268.451 167.828 246.579C175.258 224.707 189.636 205.864 208.77 192.922C227.904 179.98 250.745 173.65 273.811 174.895L268.101 280.642L364.676 237.191Z" fill="#38B89A"/>
<path d="M280.336 167.641C299.199 168.914 317.378 175.214 332.984 185.887C348.59 196.56 361.054 211.216 369.082 228.334L273.203 273.3L280.336 167.641Z" fill="#38B89A" fill-opacity="0.47"/>
</svg>
