<svg width="37" height="30" viewBox="0 0 37 30" fill="none" xmlns="http://www.w3.org/2000/svg">
<path d="M36.1267 4.27586C34.8038 4.9373 33.4809 5.15778 31.9376 5.37827C33.4809 4.49634 34.5834 3.17345 35.0243 1.40959C33.7014 2.29152 32.158 2.73248 30.3942 3.17345C29.0713 1.85056 27.087 0.968628 25.1026 0.968628C20.4725 0.968628 16.9448 5.37827 18.0472 9.78791C12.0942 9.56742 6.80262 6.70116 3.05443 2.29152C1.07009 5.59875 2.1725 9.78791 5.25925 11.9927C4.15684 11.9927 3.05443 11.5518 1.95202 11.1108C1.95202 14.418 4.37732 17.5048 7.68455 18.3867C6.58214 18.6072 5.47973 18.8277 4.37732 18.6072C5.25925 21.4734 7.90503 23.6783 11.2123 23.6783C8.56648 25.6626 4.5978 26.765 0.849609 26.3241C4.15684 28.3084 7.90503 29.6313 11.8737 29.6313C25.3231 29.6313 32.8195 18.3867 32.3785 8.02405C33.9219 7.14212 35.2448 5.81923 36.1267 4.27586Z" fill="#A6A6A6" fill-opacity="0.88"/>
</svg>
