<svg width="16" height="14" viewBox="0 0 16 14" fill="none" xmlns="http://www.w3.org/2000/svg">
<path d="M16 1.84863C15.4 2.14863 14.8 2.24863 14.1 2.34863C14.8 1.94863 15.3 1.34863 15.5 0.548633C14.9 0.948633 14.2 1.14863 13.4 1.34863C12.8 0.748633 11.9 0.348633 11 0.348633C8.9 0.348633 7.3 2.34863 7.8 4.34863C5.1 4.24863 2.7 2.94863 1 0.948633C0.1 2.44863 0.6 4.34863 2 5.34863C1.5 5.34863 1 5.14863 0.5 4.94863C0.5 6.44863 1.6 7.84863 3.1 8.24863C2.6 8.34863 2.1 8.44863 1.6 8.34863C2 9.64863 3.2 10.6486 4.7 10.6486C3.5 11.5486 1.7 12.0486 0 11.8486C1.5 12.7486 3.2 13.3486 5 13.3486C11.1 13.3486 14.5 8.24863 14.3 3.54863C15 3.14863 15.6 2.54863 16 1.84863Z" fill="#DADADA"/>
</svg>
