<svg width="246" height="244" viewBox="0 0 246 244" fill="none" xmlns="http://www.w3.org/2000/svg">
<path d="M45.6236 306.941L7.7861 265.888C5.9825 263.931 8.43602 261.002 10.6789 262.434L56.1529 291.479C58.1506 292.755 60.5219 290.502 59.3498 288.442L33.9176 243.737C32.6197 241.456 35.5834 239.157 37.4705 240.981L84.3336 286.286C86.1532 288.045 89.0522 285.959 87.9622 283.675L46.8888 197.603C45.7519 195.221 48.9089 193.143 50.6477 195.129L118.189 272.284C119.92 274.261 123.067 272.21 121.957 269.829L84.8259 190.14C83.6915 187.705 86.9778 185.664 88.6572 187.761L155.32 270.966C157.056 273.133 160.42 270.887 159.084 268.453L96.8435 155.074C95.5242 152.671 98.8034 150.421 100.571 152.517L199.185 269.459C200.974 271.58 204.279 269.255 202.886 266.855L118.434 121.324C117.059 118.953 120.281 116.626 122.098 118.677L256.506 270.318C212.703 205.108 127.074 75.6193 134.98 79.3408C142.886 83.0623 243.662 194.559 293.062 249.842C245.667 184.801 152.854 55.6495 160.759 59.3709C167.869 62.7178 243.05 140.38 290.881 190.417C292.766 192.388 295.892 189.95 294.464 187.627L221.722 69.3019C220.363 67.0924 223.173 64.6989 225.138 66.3912L290.415 122.598C292.403 124.309 295.228 121.848 293.805 119.645L238.971 34.729C237.705 32.7688 239.863 30.4029 241.931 31.484L286.241 54.6511C288.255 55.7041 290.396 53.4738 289.262 51.5045L261.592 3.47281" stroke="#38B89A" stroke-width="13.6279"/>
</svg>
