<svg width="52" height="52" viewBox="0 0 52 52" fill="none" xmlns="http://www.w3.org/2000/svg">
<path fill-rule="evenodd" clip-rule="evenodd" d="M25.1496 10.2751C16.9344 10.2751 10.2746 16.9349 10.2746 25.1501C10.2746 33.3653 16.9344 40.0251 25.1496 40.0251C33.3648 40.0251 40.0246 33.3653 40.0246 25.1501C40.0246 16.9349 33.3648 10.2751 25.1496 10.2751ZM7.72461 25.1501C7.72461 15.5265 15.526 7.7251 25.1496 7.7251C34.7732 7.7251 42.5746 15.5265 42.5746 25.1501C42.5746 29.503 40.9785 33.4831 38.3397 36.537L43.9012 42.0985C44.3991 42.5965 44.3991 43.4037 43.9012 43.9017C43.4032 44.3996 42.596 44.3996 42.098 43.9017L36.5366 38.3402C33.4826 40.979 29.5025 42.5751 25.1496 42.5751C15.526 42.5751 7.72461 34.7737 7.72461 25.1501Z" fill="white"/>
</svg>
