<svg width="18" height="16" viewBox="0 0 18 16" fill="none" xmlns="http://www.w3.org/2000/svg">
<circle cx="7" cy="7" r="7" transform="matrix(-1 0 0 1 16 1)" fill="#38B89A"/>
<path d="M4.50001 8C4.50001 7.86739 4.55268 7.74021 4.64645 7.64645C4.74022 7.55268 4.8674 7.5 5.00001 7.5H11.793L9.14601 4.854C9.09952 4.80751 9.06264 4.75232 9.03748 4.69158C9.01232 4.63084 8.99937 4.56574 8.99937 4.5C8.99937 4.43425 9.01232 4.36915 9.03748 4.30841C9.06264 4.24768 9.09952 4.19249 9.14601 4.146C9.19249 4.09951 9.24768 4.06263 9.30842 4.03748C9.36916 4.01232 9.43426 3.99937 9.50001 3.99937C9.56575 3.99937 9.63085 4.01232 9.69159 4.03748C9.75233 4.06263 9.80752 4.09951 9.85401 4.146L13.354 7.646C13.4006 7.69244 13.4375 7.74762 13.4627 7.80836C13.4879 7.86911 13.5009 7.93423 13.5009 8C13.5009 8.06577 13.4879 8.13089 13.4627 8.19163C13.4375 8.25238 13.4006 8.30755 13.354 8.354L9.85401 11.854C9.80752 11.9005 9.75233 11.9374 9.69159 11.9625C9.63085 11.9877 9.56575 12.0006 9.50001 12.0006C9.43426 12.0006 9.36916 11.9877 9.30842 11.9625C9.24768 11.9374 9.19249 11.9005 9.14601 11.854C9.09952 11.8075 9.06264 11.7523 9.03748 11.6916C9.01232 11.6308 8.99937 11.5657 8.99937 11.5C8.99937 11.4343 9.01232 11.3692 9.03748 11.3084C9.06264 11.2477 9.09952 11.1925 9.14601 11.146L11.793 8.5H5.00001C4.8674 8.5 4.74022 8.44732 4.64645 8.35355C4.55268 8.25978 4.50001 8.13261 4.50001 8Z" fill="white"/>
</svg>
