<svg width="18" height="16" viewBox="0 0 18 16" fill="none" xmlns="http://www.w3.org/2000/svg">
<circle cx="9" cy="8" r="7" fill="#38B89A"/>
<path d="M13.5 8C13.5 7.86739 13.4473 7.74021 13.3536 7.64645C13.2598 7.55268 13.1326 7.5 13 7.5H6.207L8.854 4.854C8.90049 4.80751 8.93737 4.75232 8.96252 4.69158C8.98768 4.63084 9.00063 4.56574 9.00063 4.5C9.00063 4.43425 8.98768 4.36915 8.96252 4.30841C8.93737 4.24768 8.90049 4.19249 8.854 4.146C8.80751 4.09951 8.75232 4.06263 8.69158 4.03748C8.63085 4.01232 8.56574 3.99937 8.5 3.99937C8.43426 3.99937 8.36916 4.01232 8.30842 4.03748C8.24768 4.06263 8.19249 4.09951 8.146 4.146L4.646 7.646C4.59944 7.69244 4.5625 7.74762 4.53729 7.80836C4.51208 7.86911 4.49911 7.93423 4.49911 8C4.49911 8.06577 4.51208 8.13089 4.53729 8.19163C4.5625 8.25238 4.59944 8.30755 4.646 8.354L8.146 11.854C8.19249 11.9005 8.24768 11.9374 8.30842 11.9625C8.36916 11.9877 8.43426 12.0006 8.5 12.0006C8.56574 12.0006 8.63085 11.9877 8.69158 11.9625C8.75232 11.9374 8.80751 11.9005 8.854 11.854C8.90049 11.8075 8.93737 11.7523 8.96252 11.6916C8.98768 11.6308 9.00063 11.5657 9.00063 11.5C9.00063 11.4343 8.98768 11.3692 8.96252 11.3084C8.93737 11.2477 8.90049 11.1925 8.854 11.146L6.207 8.5H13C13.1326 8.5 13.2598 8.44732 13.3536 8.35355C13.4473 8.25978 13.5 8.13261 13.5 8Z" fill="white"/>
</svg>
